# xmcd
#
# Track frame offsets:
#	182
#	13600
#	27627
#	45722
#	60112
#	71977
#	83142
#	94235
#	103575
#	124695
#	136342
#	151302
#	168890
#	178542
#
# Disc length: 2571 seconds
#
# Revision: 0
# Processed by: cddbd v1.5PL3 Copyright (c) Steve Scherf et al.
# Submitted via: dBpowerAMP V4.0
#
DISCID=b20a090e
DTITLE=Mike Reid - Mike Reid Sings
DYEAR=1993
DGENRE=Easy Listening
TTITLE0=Is You Is Or Is You Ain't My Baby?
TTITLE1=nobody Knows You When You're Down And Out
TTITLE2=Always On My Mind
TTITLE3=King Of The Road
TTITLE4=The Lady Is A Tramp
TTITLE5=What A Wonderful World
TTITLE6=You Made Me Love You
TTITLE7=Recipe For Love
TTITLE8=Just The Way You Are
TTITLE9=Cry Me A River
TTITLE10=With These Hands
TTITLE11=It Might As Well Be Spring
TTITLE12=I Can't Give You Anything But love
TTITLE13=Stormy Weather
EXTD=Chris's Info on this legendary Album picked up in a Mini Mart - a Living Legend.
EXTT0=
EXTT1=
EXTT2=
EXTT3=
EXTT4=
EXTT5=
EXTT6=
EXTT7=
EXTT8=
EXTT9=
EXTT10=
EXTT11=
EXTT12=
EXTT13=
PLAYORDER=
